<?xml version="1.0" encoding="utf-8"?>
<!-- Generator: Adobe Illustrator 16.0.0, SVG Export Plug-In . SVG Version: 6.00 Build 0)  -->
<!DOCTYPE svg PUBLIC "-//W3C//DTD SVG 1.1//EN" "http://www.w3.org/Graphics/SVG/1.1/DTD/svg11.dtd">
<svg version="1.1" id="Layer_1" xmlns="http://www.w3.org/2000/svg" xmlns:xlink="http://www.w3.org/1999/xlink" x="0px" y="0px"
	 width="612px" height="674px" viewBox="0 0 612 674" enable-background="new 0 0 612 674" xml:space="preserve">
<path fill="#01B086" d="M180.521,582.186c-8.347-3.45-16.693-6.902-25.041-10.354c-1.04-3.467-4.479-3.47-6.984-4.504
	c-30.964-12.766-62.603-23.514-95.123-31.636c-29.901-7.47-29.882-7.548-25.165-38.855c0.063-0.416,0.173-0.82,0.244-1.233
	c6.527-39.032,15.754-77.668,16.046-117.591c0.403-54.709,5.651-109.168,9.249-163.711c2.496-37.839,15.131-71.455,41.154-99.854
	c8.915-9.729,19.794-17.935,25.835-30.172l-0.374-0.558c0,0,0.337,0.575,0.335,0.575c7.937-6.72,15.294-14.316,23.916-19.993
	c29.487-19.423,61.81-31.14,96.347-39.524c29.476-7.157,58.323-3.818,87.205-2.801c20.018,0.705,40.546,2.4,60.468,8.768
	c26.021,8.316,45.565,25.634,66.502,41.431c14.683,11.078,22.75,26.152,27.86,43.161c7.861,26.147,16.209,51.945,39.205,69.526
	c0,0-0.022-0.005-0.022-0.008c16.19,26.664,13.354,55.545,9.845,84.503c0,0,0.034,0.088,0.04,0.088
	c-6.217,5.346-4.429,12.235-0.914,17.03c15.159,20.693,27.386,43.871,48.644,59.596l0.734-0.536c0,0-0.7,0.579-0.697,0.579
	c9.215,23.179,3.538,36.729-19.126,45.675c-15.354,6.059-19.929,16.849-13.07,31.805c2.295,5.002,6.564,10.715,3.413,15.284
	c-11.388,16.507-8.783,39.696-26.246,53.274c-4.811,3.741-5.159,10.403-4.749,16.372c0.457,6.675,1.329,13.322,2.133,19.969
	c1.904,15.753-5.01,26.55-18.616,33.798c-12.62,6.721-25.567,12.515-39.676,15.406c-32.247,6.609-65.161,10.434-95.49,24.767
	c-12.61,5.957-25.069,11.49-31.765,24.762l-0.057,0.06c-6.915,3.744-7.981,11.239-11.062,17.408
	c-5.936,11.897-8.032,12.245-19.969,5.506c-22.395-12.647-42.474-29.243-66.573-38.959c0,0,0.139,0.047,0.138,0.049
	C221.053,598.624,201.488,588.993,180.521,582.186z"/>
</svg>
